# xmcd
#
# Track frame offsets:
#	150
#	21218
#	42905
#	66432
#	84526
#	97599
#	113503
#	130048
#	145262
#	168822
#	194320
#	214887
#
# Disc length: 3222 seconds
#
# Revision: 0
# Processed by: cddbd v1.5.1PL2 Copyright (c) Steve Scherf et al.
# Submitted via: dBpowerAMP V4.0
#
DISCID=9a0c940c
DTITLE=Tom Hunter - Here I Go Again
DYEAR=2006
DGENRE=Blues
TTITLE0=Underestimated You
TTITLE1=Imitation of Love
TTITLE2=Here I Go Again
TTITLE3=The Night is a Hunter
TTITLE4=New York State of Mind
TTITLE5=Ever Since the World Began
TTITLE6=New Coat of Paint
TTITLE7=Basin Street Blues
TTITLE8=Tenor Madness
TTITLE9=Nothing's For Free
TTITLE10=Drown in My Own Tears
TTITLE11=Layin' in the Alley
EXTD=
EXTT0=
EXTT1=
EXTT2=
EXTT3=
EXTT4=
EXTT5=
EXTT6=
EXTT7=
EXTT8=
EXTT9=
EXTT10=
EXTT11=
PLAYORDER=
